<?xml version="1.0" standalone="no"?>
<!DOCTYPE svg PUBLIC "-//W3C//DTD SVG 20010904//EN"
 "http://www.w3.org/TR/2001/REC-SVG-20010904/DTD/svg10.dtd">
<svg version="1.0" xmlns="http://www.w3.org/2000/svg"
 width="192.000000pt" height="192.000000pt" viewBox="0 0 192.000000 192.000000"
 preserveAspectRatio="xMidYMid meet">
<metadata>
Created by potrace 1.10, written by Peter Selinger 2001-2011
</metadata>
<g transform="translate(0.000000,192.000000) scale(0.050000,-0.050000)"
fill="#000000" stroke="none">
<path d="M940 3699 c-514 -24 -744 -268 -756 -801 l-7 -272 173 -14 c95 -8
183 -18 197 -23 14 -6 33 29 48 93 45 192 210 392 396 483 l89 43 0 215 c0
121 9 220 20 227 13 8 20 -65 20 -204 l0 -216 180 0 180 0 0 200 c0 110 9 214
20 230 13 20 19 -48 20 -211 l0 -241 85 -37 c47 -21 141 -95 209 -165 l124
-128 136 138 c80 81 167 149 211 165 l75 27 0 227 c0 147 7 223 20 215 11 -7
20 -102 20 -216 l0 -204 180 0 180 0 0 225 c0 137 8 225 20 225 12 0 20 -93
20 -238 l0 -237 64 -27 c35 -14 93 -52 129 -83 l64 -57 45 60 c24 33 70 69
101 80 42 15 57 33 57 70 0 114 145 135 201 30 25 -47 -21 -138 -71 -138 -19
0 -30 -19 -30 -51 0 -39 -16 -58 -69 -80 -100 -42 -120 -91 -72 -173 21 -36
49 -108 62 -159 22 -90 25 -93 86 -84 35 5 117 15 183 23 l120 15 -7 259 c-12
445 -145 651 -504 781 -93 34 -1669 54 -2219 28z m1020 -285 c0 -118 9 -195
24 -210 19 -19 19 -29 0 -48 -13 -13 -24 -71 -24 -129 0 -57 -9 -110 -20 -117
-12 -8 -20 32 -20 105 0 64 -11 128 -24 141 -19 19 -19 29 0 48 15 15 24 92
24 210 0 111 8 186 20 186 12 0 20 -75 20 -186z m-142 84 c-16 -10 -19 -18 -8
-18 11 0 7 -9 -9 -19 -18 -11 -44 -10 -70 5 -23 12 -48 21 -56 18 -8 -2 -15 7
-15 21 0 18 28 23 93 18 62 -5 83 -13 65 -25z m345 17 c20 5 37 0 37 -12 0
-12 -16 -17 -35 -10 -29 9 -30 7 -5 -10 17 -12 30 -33 31 -47 0 -14 14 -24 30
-21 20 4 18 -3 -8 -23 -40 -31 -153 -7 -153 32 0 14 9 14 26 0 19 -17 26 -10
30 27 2 27 -5 49 -16 49 -11 0 -20 -9 -20 -20 0 -11 -8 -20 -18 -20 -15 0 -16
26 -4 76 1 3 17 -2 35 -12 18 -10 49 -14 70 -9z m977 -15 c0 -9 6 -31 12 -49
10 -24 4 -28 -24 -17 -31 11 -30 6 8 -34 45 -48 58 -100 26 -100 -10 0 -23 14
-30 31 -8 22 -21 26 -47 13 -44 -23 -90 -8 -72 23 7 13 6 17 -2 9 -28 -25 -96
23 -73 51 11 14 16 43 10 64 -9 35 -1 38 91 32 56 -4 101 -14 101 -23z m-2165
-20 c-2 -22 -17 -41 -34 -41 -22 -1 -19 -7 9 -19 36 -15 36 -17 4 -19 -20 0
-31 -9 -25 -19 14 -23 -36 -42 -112 -42 -34 0 -54 -8 -47 -20 7 -11 3 -20 -9
-20 -11 0 -21 -10 -21 -21 0 -12 11 -15 25 -6 17 10 17 4 -2 -19 -21 -25 -36
-28 -65 -13 -41 22 -48 -16 -8 -46 13 -9 12 -14 -2 -15 -13 0 -30 -29 -38 -65
-14 -64 -15 -64 -30 -15 -11 33 -17 38 -18 15 -2 -41 -24 -45 -58 -11 -13 13
-24 18 -24 11 0 -6 16 -28 35 -47 33 -33 33 -35 1 -23 -19 7 -40 5 -46 -5 -6
-10 -24 -13 -41 -7 -47 18 -33 -25 16 -49 45 -21 45 -21 2 -23 -28 -1 -47 -18
-55 -51 -13 -51 -40 -65 -61 -32 -6 11 2 32 18 48 22 22 23 34 5 52 -18 18
-17 27 3 40 21 13 20 19 -4 28 -42 16 -34 94 10 94 19 0 40 9 47 20 7 11 -1
15 -17 8 -21 -8 -28 0 -25 25 3 20 27 42 54 49 41 11 43 15 13 27 -45 19 -23
56 24 41 29 -9 35 -1 30 40 -3 27 3 45 13 39 10 -6 24 3 31 21 7 18 25 27 41
21 16 -6 48 11 73 39 59 68 292 76 288 10z m799 -48 c14 -2 32 -12 40 -21 9
-10 5 -11 -8 -4 -13 8 -33 -2 -44 -22 -18 -29 -25 -30 -39 -7 -10 15 -28 22
-39 15 -11 -7 -25 0 -31 16 -12 33 23 53 67 37 17 -5 41 -12 54 -14z"/>
<path d="M3313 3287 c-7 -8 -13 -33 -13 -56 0 -50 -35 -91 -79 -91 -66 0 -144
-131 -102 -169 36 -33 40 -32 71 16 18 28 53 53 77 57 35 5 42 18 40 71 -2 56
4 65 44 65 50 0 90 52 75 95 -10 26 -90 35 -113 12z"/>
<path d="M2444 3179 c-170 -34 -319 -141 -459 -329 l-44 -60 -70 80 c-39 44
-66 67 -61 50 5 -16 2 -57 -8 -90 -18 -57 -35 46 -24 142 3 26 -153 139 -247
179 -41 17 -133 29 -225 29 l-156 -1 170 -166 c94 -91 176 -163 183 -160 7 4
-42 61 -110 128 -68 66 -109 118 -93 115 17 -3 28 5 25 19 -8 39 152 30 251
-15 48 -22 81 -48 74 -59 -7 -12 0 -16 15 -10 48 18 94 -54 70 -111 -17 -41
-23 -44 -30 -15 -4 19 -17 35 -29 35 -11 0 -16 -12 -10 -27 7 -19 -3 -24 -35
-18 -26 5 -53 -2 -61 -15 -11 -18 -2 -20 32 -9 44 14 46 12 19 -23 -17 -21
-32 -42 -35 -46 -3 -4 -19 4 -36 18 -55 46 -31 -12 30 -70 33 -31 55 -62 49
-67 -5 -6 -64 42 -130 108 -65 65 -119 111 -119 103 0 -8 36 -47 80 -86 44
-40 80 -89 80 -109 0 -52 -42 -139 -67 -139 -11 0 -3 -13 18 -29 38 -29 38
-30 -1 -31 -63 -1 -96 -91 -42 -117 l42 -20 -44 -2 c-46 -1 -30 -121 16 -121
31 0 19 -37 -14 -44 -21 -4 -12 -14 26 -28 l59 -22 -19 84 c-106 462 477 728
783 358 47 -58 66 -68 94 -53 22 13 26 24 12 33 -11 7 -16 28 -9 46 9 22 5 28
-11 18 -15 -9 -23 0 -23 27 0 25 13 42 35 42 31 2 30 4 -4 17 -35 14 -31 23
47 107 51 56 96 88 113 82 20 -8 29 3 29 31 0 51 33 54 88 7 31 -26 35 -27 17
-3 -35 45 -9 61 36 23 28 -24 32 -39 16 -59 -16 -19 -15 -26 2 -26 13 0 17
-10 9 -23 -9 -15 -5 -18 9 -9 13 8 18 25 10 36 -8 13 -4 16 9 8 12 -7 72 20
133 60 l111 74 -71 48 c-171 117 -163 120 -437 -152 -236 -232 -323 -303 -232
-188 38 49 39 57 12 77 -17 13 -26 29 -18 36 7 7 4 13 -7 13 -10 0 -30 -11
-44 -25 -17 -17 -24 -17 -19 -2 3 12 -16 42 -44 67 l-50 44 -10 -87 c-10 -85
-40 -68 -40 22 0 59 78 136 102 100 16 -23 19 -22 14 10 -8 56 129 127 270
141 106 10 113 8 108 -29 -9 -60 -31 -72 -60 -33 -19 25 -45 33 -95 27 l-69
-9 75 -3 c72 -3 122 -117 55 -125 -11 -2 -29 -5 -40 -8 -11 -3 -27 -6 -35 -8
-8 -1 -4 -10 10 -19 20 -12 15 -25 -18 -54 -43 -39 -43 -39 -33 1 7 31 0 40
-36 40 -42 0 -43 -3 -13 -35 17 -19 24 -35 14 -35 -9 0 -7 -10 5 -22 23 -23
201 151 191 187 -4 10 3 12 14 5 12 -7 64 29 116 78 l95 91 -60 1 c-33 0 -78
4 -100 9 -22 4 -78 0 -126 -10z m356 -152 c0 -47 -8 -68 -25 -62 -14 5 -24 19
-23 32 1 13 3 46 5 74 5 77 43 38 43 -44z"/>
<path d="M1018 3122 c-172 -86 -178 -102 -58 -162 38 -19 44 -19 27 -1 -17 19
-8 39 38 83 86 82 100 78 257 -67 89 -82 57 -26 -42 75 -121 123 -121 123
-222 72z"/>
<path d="M781 2942 c-36 -51 -37 -59 -9 -70 45 -17 52 -15 36 11 -9 15 -5 18
9 9 13 -8 19 -22 14 -30 -5 -9 14 -27 43 -40 48 -22 50 -21 26 8 -23 28 -23
36 1 51 20 13 21 18 4 19 -14 0 -25 9 -25 21 0 11 26 7 60 -11 84 -44 75 -25
-20 37 -97 65 -89 65 -139 -5z"/>
<path d="M2915 2916 c-104 -74 -145 -144 -55 -96 23 12 42 13 49 1 19 -30 -68
-47 -101 -20 -20 17 -36 19 -50 5 -82 -82 264 0 359 85 9 8 -63 108 -77 107
-5 -1 -62 -38 -125 -82z"/>
<path d="M1111 2903 c-75 -12 -81 -18 -97 -98 -14 -74 -23 -85 -70 -87 l-54
-2 51 -20 c31 -13 64 -52 85 -103 33 -80 194 -206 194 -152 0 12 16 16 38 10
28 -9 42 -1 52 28 7 22 26 54 42 70 21 21 24 41 12 66 -25 47 -9 85 36 85 21
0 44 10 52 23 10 16 -11 19 -74 10 -254 -35 -298 -38 -298 -16 0 15 50 23 141
23 l141 0 -14 75 c-7 41 -14 76 -16 78 -10 14 -157 20 -221 10z m209 -274 c0
-7 -12 -24 -26 -38 -30 -30 -104 -3 -83 30 12 20 109 27 109 8z"/>
<path d="M3085 2801 c-72 -86 -81 -111 -34 -93 18 6 26 3 19 -8 -7 -11 -3 -20
9 -20 11 0 21 15 21 33 0 19 4 29 9 24 29 -28 -17 -157 -55 -157 -22 0 -35 -6
-28 -12 7 -7 61 -7 121 1 l109 13 -19 70 c-11 38 -35 105 -53 148 l-34 78 -65
-77z"/>
<path d="M682 2776 c-73 -168 -71 -189 13 -203 108 -18 233 -14 165 5 -27 8
-50 26 -50 41 0 15 -17 33 -37 40 -34 12 -34 15 -4 40 19 16 27 42 20 65 -12
36 -9 36 59 8 105 -44 88 -21 -29 38 l-101 51 -36 -85z"/>
<path d="M2970 2779 c-55 -32 -94 -59 -87 -59 31 0 153 61 176 89 34 41 28 39
-89 -30z"/>
<path d="M2588 2720 c-58 -23 -71 -67 -35 -119 23 -32 25 -50 8 -69 -29 -36
34 -148 87 -156 22 -3 54 -33 72 -66 21 -39 63 -71 118 -91 47 -18 93 -44 102
-59 14 -23 156 -79 203 -80 14 0 77 148 77 180 0 28 -73 25 -119 -4 -42 -26
-177 60 -197 125 -5 16 10 4 35 -26 24 -30 54 -55 66 -55 11 0 7 16 -10 35
-35 40 -75 170 -75 247 0 126 -179 200 -332 138z m155 -137 c15 -42 14 -42
-34 -11 -56 37 -64 67 -16 60 19 -3 41 -25 50 -49z m-98 -113 c5 -28 3 -55 -5
-60 -19 -12 -63 88 -49 112 18 29 43 4 54 -52z m555 -218 c0 -63 -67 -152
-106 -141 -66 21 -66 24 -4 89 48 50 110 80 110 52z"/>
<path d="M180 2259 l0 -339 286 0 286 0 -77 156 c-43 86 -83 194 -89 240 l-11
84 -108 0 c-59 0 -107 9 -107 20 0 11 48 20 106 20 102 0 105 2 103 55 -2 53
-8 56 -131 69 -70 7 -157 18 -193 24 l-65 9 0 -338z"/>
<path d="M3560 2578 c-49 -8 -128 -16 -175 -17 -81 -1 -85 -4 -85 -61 0 -58 3
-60 90 -60 50 0 90 -9 90 -20 0 -11 -39 -20 -88 -20 l-87 0 -14 -92 c-8 -50
-49 -158 -91 -240 l-76 -148 273 0 273 0 5 329 c5 364 10 349 -115 329z"/>
<path d="M620 2492 c0 -52 1 -52 165 -51 119 1 153 7 120 20 -62 25 -56 42 10
29 44 -9 47 -7 15 7 -22 10 -101 24 -175 32 l-135 14 0 -51z"/>
<path d="M3080 2520 c-47 -10 -55 -16 -25 -17 25 -2 45 -11 45 -22 0 -10 -20
-22 -45 -27 -25 -5 11 -10 80 -11 121 -3 125 -1 125 47 0 55 -35 60 -180 30z"/>
<path d="M2367 2455 c7 -25 13 -52 13 -60 0 -8 19 -15 42 -15 30 0 39 9 30 32
-7 17 -12 44 -12 60 0 15 -19 28 -42 28 -34 0 -40 -9 -31 -45z"/>
<path d="M1005 2432 c-19 -41 -17 -46 15 -38 24 6 51 -11 82 -52 25 -34 55
-62 67 -62 11 0 42 -38 67 -85 41 -74 41 -78 6 -35 -23 28 -41 56 -42 63 0 7
-15 18 -33 25 -29 11 -29 8 -2 -33 16 -25 58 -97 94 -160 78 -139 84 -141 68
-23 -17 124 -160 383 -230 420 -70 36 -67 36 -92 -20z"/>
<path d="M620 2382 c0 -60 24 -72 132 -65 206 13 230 83 28 83 -88 0 -160 -8
-160 -18z"/>
<path d="M3105 2381 c101 -20 117 -40 33 -44 -68 -3 -68 -3 12 -15 60 -9 83
-5 94 18 25 55 17 60 -99 58 -106 -2 -109 -4 -40 -17z"/>
<path d="M922 2333 c-50 -61 -89 -376 -86 -693 3 -329 -12 -401 -86 -413 -67
-10 -107 12 -65 35 19 11 46 14 58 6 14 -8 18 -5 10 7 -7 11 0 26 15 31 23 9
26 66 20 293 l-7 282 -302 5 -302 4 7 -600 c7 -687 10 -699 189 -891 222 -238
259 -243 1627 -235 1276 7 1235 1 1438 196 208 199 241 352 235 1097 l-3 426
-295 4 c-162 2 -296 -1 -296 -7 -9 -79 -21 -181 -26 -223 -6 -54 -73 -142 -73
-95 0 14 -4 21 -9 16 -4 -5 5 -71 21 -148 25 -120 128 -686 128 -706 0 -3 -9
-1 -20 6 -23 14 -82 209 -83 274 0 25 -5 84 -10 131 l-9 85 -100 0 c-62 0 -96
-8 -88 -20 7 -11 4 -20 -7 -20 -11 0 -25 11 -31 25 -6 14 -9 -17 -7 -68 3 -62
-2 -88 -15 -77 -22 18 -23 193 -2 214 7 7 62 17 122 22 61 5 110 10 109 11 0
2 -13 53 -27 113 -17 71 -36 108 -53 104 -14 -4 -2 23 28 60 137 168 138 208
8 493 l-43 93 -8 -70 c-9 -81 30 -277 63 -318 17 -22 17 -31 -2 -37 -14 -5
-21 -15 -16 -24 6 -8 -21 -52 -60 -96 -38 -45 -69 -91 -69 -103 0 -29 -46 -28
-76 2 -32 32 -30 56 5 56 56 0 111 97 86 152 -17 39 -15 64 12 121 33 69 33
77 -1 160 -43 104 -50 106 -87 23 -16 -35 -44 -65 -62 -67 -17 -3 -51 -11 -75
-18 -67 -22 -50 20 58 139 55 61 100 116 100 124 0 7 -6 7 -13 0 -7 -7 -29 -4
-49 7 -58 31 -154 -77 -99 -111 11 -6 5 -28 -15 -51 -19 -22 -39 -60 -45 -84
-9 -40 -30 -25 -197 138 -111 109 -207 187 -239 193 -63 12 -84 -1 -42 -27 22
-14 22 -18 3 -19 -36 0 7 -44 87 -87 111 -59 115 -65 91 -109 -19 -36 -6 -50
129 -142 174 -118 187 -121 175 -47 -7 43 -4 48 12 25 12 -16 22 -64 22 -106
0 -48 11 -79 30 -87 21 -8 24 -21 10 -46 -10 -20 -13 -41 -6 -48 7 -7 2 -13
-11 -13 -16 0 -23 -75 -23 -260 0 -153 8 -260 19 -260 21 0 16 -212 -6 -233
-7 -8 -13 -30 -13 -50 0 -20 -9 -37 -20 -37 -12 0 -21 87 -23 215 l-2 215 -17
-153 c-16 -160 -61 -297 -96 -297 -23 0 -20 23 51 358 26 125 45 230 42 233
-3 3 -129 -89 -280 -205 l-275 -210 0 -98 0 -98 557 0 c611 0 623 -2 623 -123
0 -95 -12 -97 -614 -97 -553 0 -566 -1 -566 -40 0 -22 -9 -40 -20 -40 -11 0
-20 18 -20 40 0 39 -13 40 -577 40 -625 0 -643 3 -643 113 0 102 29 107 647
107 l573 0 0 96 0 96 -260 196 c-143 107 -265 203 -271 213 -31 51 -38 -4 -33
-261 4 -165 -2 -280 -13 -280 -29 0 -39 92 -32 298 l7 192 -26 -121 c-35 -169
-32 -166 -194 -155 l-141 9 5 -56 c3 -32 -3 -88 -13 -127 l-17 -70 -11 80 c-8
57 -22 82 -48 87 -23 4 -33 -2 -24 -15 8 -14 1 -17 -20 -9 -31 12 -31 14 0 32
25 14 28 25 11 45 -15 18 -18 62 -9 124 11 79 9 92 -13 71 -36 -35 -108 -31
-139 6 -23 28 -19 30 29 18 90 -23 147 23 183 146 39 137 56 127 28 -17 -32
-171 -43 -295 -28 -340 26 -83 47 -4 70 262 21 253 46 333 83 274 26 -40 18
-59 -19 -45 -27 10 -29 8 -12 -10 28 -29 74 -5 60 31 -7 17 3 22 28 15 22 -5
39 -17 39 -25 0 -9 16 -14 35 -11 19 3 24 1 10 -3 -14 -5 -25 -35 -25 -67 0
-33 -9 -59 -20 -59 -11 0 -20 9 -20 20 0 11 -7 20 -15 20 -8 0 -13 -40 -11
-90 2 -55 -5 -90 -19 -90 -12 0 -16 -6 -9 -13 7 -7 27 -1 44 13 43 36 59 12
20 -28 -35 -34 -32 -37 60 -40 57 -3 61 3 94 128 37 143 48 420 16 420 -11 0
-20 10 -20 21 0 12 8 16 19 10 10 -7 18 16 17 49 -1 34 -10 66 -19 72 -9 5
-12 -2 -6 -18 8 -20 -5 -27 -50 -24 -55 3 -59 -1 -47 -48 12 -49 10 -50 -24
-22 -34 27 -36 27 -26 -2 7 -18 2 -31 -12 -31 -19 0 -20 14 -2 66 12 36 21
111 19 166 -2 56 2 101 10 101 19 0 1 118 -20 130 -8 6 -25 -36 -38 -92 -74
-346 -82 -370 -122 -373 -22 -1 -35 5 -29 15 5 9 1 20 -9 23 -12 4 -9 56 7
137 60 286 45 558 -26 473z m1756 -185 c-24 -26 -52 -41 -63 -35 -11 7 -8 19
8 29 15 10 19 18 10 18 -10 0 -7 13 6 29 13 16 37 24 54 17 24 -9 21 -20 -15
-58z m564 -433 c0 -36 6 -54 11 -40 6 14 33 25 60 25 27 0 44 -8 38 -19 -6
-10 -4 -23 6 -29 10 -7 23 8 30 31 l11 43 50 -48 c28 -26 42 -51 31 -55 -11
-3 -14 -15 -8 -25 6 -10 -3 -18 -20 -18 -41 0 -39 -19 4 -54 32 -27 32 -28
-11 -19 -38 8 -42 5 -23 -19 18 -21 18 -28 1 -28 -13 0 -28 14 -35 30 -6 17
-24 30 -39 30 -15 0 -22 12 -16 28 6 15 -1 35 -16 43 -14 9 -20 9 -12 0 7 -8
-4 -34 -25 -57 -22 -23 -39 -67 -39 -98 0 -31 -8 -56 -19 -56 -10 0 -18 16
-18 35 0 19 0 94 -1 165 -1 173 2 200 21 200 10 0 18 -29 19 -65z m-2789 -73
c6 -38 1 -62 -13 -62 -12 0 -17 9 -10 20 17 28 -37 25 -66 -4 -19 -19 -24 -19
-24 1 0 13 19 31 43 40 41 16 42 17 5 32 -37 15 -37 16 2 31 50 19 51 18 63
-58z m198 60 c-6 -9 3 -29 19 -42 40 -33 38 -73 -4 -89 -56 -21 -91 31 -61 95
14 29 32 54 41 54 9 0 11 -8 5 -18z m-260 -140 c-6 -10 14 -37 44 -59 l55 -41
-65 4 c-60 4 -95 34 -40 34 18 1 17 5 -3 18 -24 15 -16 62 10 62 6 0 5 -8 -1
-18z m389 -220 c0 -23 -106 -35 -226 -25 -154 12 -107 43 66 43 88 0 160 -8
160 -18z m2620 -2 c0 -11 -32 -20 -71 -20 -40 0 -90 -10 -113 -22 -30 -16 -37
-16 -27 0 9 15 -14 22 -69 22 -50 0 -77 8 -70 20 7 11 88 20 181 20 99 0 169
-8 169 -20z m-2920 -139 c0 -10 -20 -23 -45 -28 -42 -9 -41 -10 5 -9 28 0 55
-2 60 -4 12 -6 95 -20 144 -25 18 -2 29 -10 25 -17 -5 -8 5 -19 21 -25 17 -7
30 -21 30 -32 0 -11 -13 -15 -30 -8 -16 6 -30 2 -30 -9 0 -28 96 -43 110 -16
6 12 7 2 2 -23 -4 -25 0 -45 11 -45 10 0 9 -17 -3 -40 -12 -22 -35 -40 -52
-40 -17 0 -25 -9 -18 -20 7 -11 3 -20 -9 -20 -11 0 -21 -13 -21 -29 0 -19 -12
-25 -32 -17 -26 9 -30 3 -20 -28 10 -32 0 -46 -45 -65 -71 -29 -175 -21 -168
14 3 14 -4 25 -14 25 -11 0 -15 14 -8 30 7 20 -1 30 -26 30 -31 1 -32 4 -7 20
17 11 21 20 10 20 -11 1 -3 14 19 31 31 23 32 29 7 29 -24 0 -30 21 -29 90 2
49 10 90 19 90 9 0 9 11 1 25 -22 35 -21 82 3 100 29 21 90 18 90 -4z m2971 0
c-6 -10 -3 -24 9 -31 40 -25 19 -50 -45 -53 l-65 -3 67 -9 c51 -6 63 -15 54
-40 -7 -17 -1 -39 13 -48 21 -14 21 -20 1 -33 -17 -11 -22 -45 -15 -99 6 -45
2 -88 -9 -94 -11 -7 -14 -26 -7 -44 6 -17 -1 -39 -16 -49 -68 -43 -218 2 -218
65 0 20 -8 37 -18 37 -10 0 -23 14 -30 31 -6 17 -4 26 6 20 10 -6 23 11 30 38
7 29 30 52 57 57 33 6 27 9 -20 11 -40 2 -65 -7 -65 -22 -1 -17 -7 -15 -20 5
-15 23 -6 42 35 77 30 26 44 41 30 34 -42 -23 -67 7 -40 49 13 21 57 44 99 51
46 7 76 24 76 41 0 17 20 28 51 28 28 0 46 -8 40 -19z m-516 -26 c-5 -14 -25
-25 -45 -25 -20 0 -40 11 -45 25 -5 16 11 25 45 25 34 0 50 -9 45 -25z m-18
-70 c13 13 23 14 23 4 0 -10 9 -6 19 10 16 26 21 25 32 -5 18 -47 14 -49 -91
-57 -82 -6 -91 -3 -97 42 -7 47 -5 47 42 16 37 -24 55 -27 72 -10z m-77 -195
c0 -24 -6 -49 -13 -56 -23 -23 -63 26 -53 63 13 51 66 45 66 -7z m-2263 -268
c5 -1 -3 -15 -17 -32 -20 -24 -20 -30 3 -30 21 -1 21 -5 -3 -20 -43 -28 -60
-24 -47 10 8 21 -1 30 -30 30 -44 0 -70 26 -48 48 10 10 89 7 142 -6z m2853
-2 c7 -11 -2 -20 -19 -20 -17 0 -31 -13 -31 -28 0 -15 -14 -33 -30 -39 -23 -9
-29 -1 -22 35 7 40 2 46 -35 38 -35 -8 -37 -5 -13 12 38 27 134 28 150 2z"/>
<path d="M1235 2348 c-10 -10 60 -148 75 -148 3 0 1 20 -5 45 -14 58 -55 118
-70 103z"/>
<path d="M2380 2301 c0 -52 7 -61 51 -61 42 0 47 6 32 35 -11 19 -19 44 -20
55 -3 56 -63 29 -63 -29z"/>
<path d="M2636 2299 c-39 -68 -20 -78 34 -19 23 26 30 48 18 60 -11 11 -31 -4
-52 -41z"/>
<path d="M1872 2323 c-28 -45 66 -91 108 -53 49 44 35 70 -40 70 -32 0 -62 -8
-68 -17z"/>
<path d="M1725 2231 c-36 -35 -65 -79 -65 -98 0 -19 -24 -43 -53 -54 -29 -11
-77 -38 -108 -59 -70 -51 -72 -51 -108 15 l-29 55 -3 -80 c-5 -123 3 -219 18
-234 30 -31 345 171 335 214 -8 29 8 52 59 85 62 41 68 53 57 110 -7 36 -13
76 -14 90 -1 35 -15 28 -89 -44z"/>
<path d="M674 2188 c34 -100 65 -123 120 -88 33 21 32 22 -9 13 -25 -5 -50 -1
-56 9 -6 10 -3 18 7 18 28 0 43 99 16 103 -12 1 10 9 48 17 63 13 58 15 -44
17 l-114 3 32 -92z"/>
<path d="M3065 2046 c28 -7 31 -17 14 -48 -12 -22 -29 -34 -40 -28 -10 7 -13
-2 -6 -21 11 -27 20 -23 58 24 46 58 35 89 -31 84 -21 -1 -20 -4 5 -11z"/>
<path d="M2155 1953 l-54 -25 219 -218 c207 -206 220 -216 218 -160 0 33 -6
49 -11 36 -15 -38 -131 54 -116 93 6 16 5 24 -2 17 -15 -15 -39 2 -141 98 -69
66 -91 153 -43 173 14 5 16 10 5 10 -11 0 -45 -11 -75 -24z"/>
<path d="M1804 1493 l-6 -428 56 -45 56 -44 5 455 c3 250 3 457 0 460 -3 3
-28 11 -55 18 l-50 13 -6 -429z"/>
<path d="M1995 1906 c-32 -8 -35 -48 -35 -469 l0 -460 50 36 51 37 4 435 c3
281 -2 434 -15 433 -11 -2 -36 -7 -55 -12z"/>
<path d="M1565 1675 c-263 -263 -265 -245 55 -478 l150 -110 6 397 c3 218 3
396 0 396 -4 0 -99 -92 -211 -205z m105 -35 c-7 -23 -4 -40 9 -40 11 0 21 15
21 33 0 87 25 -5 32 -117 4 -69 3 -115 -4 -101 -17 38 -48 30 -48 -13 0 -21
-13 -43 -30 -49 -18 -7 -30 0 -30 18 0 21 -13 26 -47 18 -47 -12 -55 0 -53 91
1 91 9 119 28 100 11 -11 29 -20 40 -20 11 0 9 11 -4 24 -13 13 -24 33 -24 45
0 12 9 8 18 -7 16 -24 23 -24 49 2 17 17 26 37 19 44 -7 6 -2 12 12 12 16 0
20 -15 12 -40z"/>
<path d="M2100 1495 c0 -217 5 -395 11 -395 17 0 380 276 410 311 23 28 -3 60
-197 255 l-224 224 0 -395z m86 133 c-10 -28 -6 -29 30 -10 51 27 86 29 44 2
-26 -17 -25 -19 5 -20 19 0 35 -10 35 -21 0 -12 8 -16 18 -10 9 6 22 -8 28
-31 7 -24 21 -36 33 -29 12 8 16 24 8 37 -8 15 -2 14 15 -2 24 -22 23 -29 -2
-45 -27 -17 -27 -21 0 -40 25 -17 23 -20 -10 -15 -28 4 -38 -4 -35 -27 4 -21
-7 -32 -30 -30 -19 2 -33 -8 -30 -22 3 -14 -8 -25 -25 -25 -47 0 -60 8 -57 36
5 47 -39 13 -47 -36 -9 -61 -26 -78 -27 -28 -10 249 -10 250 26 241 19 -5 30
-1 24 9 -6 10 -24 18 -40 18 -36 0 -37 13 -4 50 34 39 57 37 41 -2z"/>
<path d="M1493 1680 c-71 -66 -113 -92 -120 -75 -5 14 -11 0 -11 -30 -2 -53 4
-50 128 68 72 68 130 126 130 130 0 18 -25 0 -127 -93z"/>
</g>
</svg>
